<svg xmlns="http://www.w3.org/2000/svg" viewBox="0 0 32 32" fill="none">
  <circle cx="16" cy="16" r="15" stroke="#0369a1" stroke-width="1.5"/>
  <path d="M16 6C16 6 10 14 10 20C10 23.3 12.7 26 16 26C19.3 26 22 23.3 22 20C22 14 16 6 16 6Z" fill="#0369a1" opacity="0.15"/>
  <path d="M16 8C16 8 11 15 11 20C11 22.8 13.2 25 16 25C18.8 25 21 22.8 21 20C21 15 16 8 16 8Z" stroke="#0369a1" stroke-width="1.5" stroke-linecap="round" stroke-linejoin="round"/>
  <path d="M16 14L16 22" stroke="#0369a1" stroke-width="1.2"/>
  <path d="M13.5 17.5L16 15L18.5 17.5" stroke="#0369a1" stroke-width="1.2" stroke-linecap="round" stroke-linejoin="round"/>
</svg>
